<svg width="19" height="19" viewBox="0 0 19 19" fill="none" xmlns="http://www.w3.org/2000/svg">
<path d="M17.8134 8.94971H7.71329C7.40906 8.94971 7.16016 9.19862 7.16016 9.50284C7.16016 9.80706 7.40906 10.056 7.71329 10.056H17.8134C18.1177 10.056 18.3666 9.80706 18.3666 9.50284C18.3666 9.19862 18.1232 8.94971 17.8134 8.94971Z" fill="white"/>
<path d="M3.20535 6.93066C1.78381 6.93066 0.633301 8.08117 0.633301 9.50272C0.633301 10.9243 1.78381 12.0748 3.20535 12.0748C4.6269 12.0748 5.7774 10.9243 5.7774 9.50272C5.7774 8.08117 4.6269 6.93066 3.20535 6.93066ZM3.20535 10.9685C2.39225 10.9685 1.73956 10.3103 1.73956 9.50272C1.73956 8.68962 2.39778 8.03692 3.20535 8.03692C4.01292 8.03692 4.67115 8.69515 4.67115 9.50272C4.67115 10.3103 4.01292 10.9685 3.20535 10.9685Z" fill="white"/>
<path d="M17.8134 2.03564H7.71329C7.40906 2.03564 7.16016 2.28455 7.16016 2.58877C7.16016 2.893 7.40906 3.1419 7.71329 3.1419H17.8134C18.1177 3.1419 18.3666 2.893 18.3666 2.58877C18.3666 2.28455 18.1232 2.03564 17.8134 2.03564Z" fill="white"/>
<path d="M3.20535 0C1.78381 0 0.633301 1.15051 0.633301 2.57205C0.633301 3.9936 1.78381 5.1441 3.20535 5.1441C4.6269 5.1441 5.7774 3.9936 5.7774 2.57205C5.7774 1.15604 4.6269 0.0055313 3.20535 0ZM3.20535 4.04338C2.39225 4.04338 1.73956 3.38515 1.73956 2.57758C1.73956 1.77001 2.39778 1.11179 3.20535 1.11179C4.01845 1.11179 4.67115 1.77001 4.67115 2.57758C4.67115 3.38515 4.01292 4.04338 3.20535 4.04338Z" fill="white"/>
<path d="M17.8134 15.8638H7.71329C7.40906 15.8638 7.16016 16.1127 7.16016 16.4169C7.16016 16.7211 7.40906 16.97 7.71329 16.97H17.8134C18.1177 16.97 18.3666 16.7211 18.3666 16.4169C18.3666 16.1127 18.1232 15.8638 17.8134 15.8638Z" fill="white"/>
<path d="M3.20535 13.8557C1.78381 13.8557 0.633301 15.0062 0.633301 16.4278C0.633301 17.8493 1.78381 18.9998 3.20535 18.9998C4.6269 18.9998 5.7774 17.8493 5.7774 16.4278C5.7774 15.0118 4.6269 13.8557 3.20535 13.8557ZM3.20535 17.8991C2.39225 17.8991 1.73956 17.2409 1.73956 16.4333C1.73956 15.6202 2.39778 14.9675 3.20535 14.9675C4.01845 14.9675 4.67115 15.6257 4.67115 16.4333C4.67115 17.2409 4.01292 17.8991 3.20535 17.8991Z" fill="white"/>
</svg>
